<svg id="Layer_1" data-name="Layer 1" xmlns="http://www.w3.org/2000/svg" width="64" height="64" viewBox="0 0 64 64"><defs><style>.cls-1{fill:#1d1d1b;}.cls-2{fill:#85bfe9;}.cls-3{fill:#cbe7f5;}</style></defs><title>uranus</title><g id="uranus"><path class="cls-1" d="M56.62,28.46a20.49,20.49,0,0,0-4.84-2.94s-1.19-3.34-2.41-5.84a16,16,0,0,0-11-7.47c-5.31-.69-9.75-.94-16.13,2.16a22.14,22.14,0,0,0-9.34,9.16,21,21,0,0,0-6.19,3.13A5.67,5.67,0,0,0,7.27,36,42.32,42.32,0,0,0,13,38.91a23.72,23.72,0,0,0,4.5,7.39c2.94,2.94,5.28,5.25,11.63,5.75s8,0,11.31-1.81a34,34,0,0,0,7.19-5.47,29.7,29.7,0,0,0,3.11-3.16c4.31-1.19,6.93-2.83,8.11-5.53C60.12,33.14,59.56,30.71,56.62,28.46Zm-44,8c-.09,0-4.94-2-5.75-4.75s3.38-5.53,5.41-6.41a14.65,14.65,0,0,0-.44,6.22C12.34,34.83,12.68,36.52,12.59,36.49ZM54.9,37.58c-1.91,1.66-3.47,2.06-3.41,1.91a18.51,18.51,0,0,0,1.41-6.06A38.49,38.49,0,0,0,52.46,28s3.44,1.22,4.47,3.84S56.81,35.92,54.9,37.58Z"/><path class="cls-2" d="M16.84,22.46c-.37-.08-.84-.31-.37-.84a18,18,0,0,1,9-6.75,22.13,22.13,0,0,1,14.28-.28c2.28.69,5.41,2.34,5.25,2.59a1.28,1.28,0,0,1-1.06.56c-.62.06-2.84-.37-4.78.44s-2.5,1.47-3.87,1.5a23.08,23.08,0,0,0-6.47.53c-2.91.75-3.47,1.66-5.69,1.94A43.81,43.81,0,0,1,16.84,22.46Z"/><path class="cls-1" d="M19.52,20.61a6.37,6.37,0,0,1,2.06-2.09A9,9,0,0,1,24,17.11c.16,0,.37.38.22.47a8.15,8.15,0,0,0-2.37,1.75c-1,1.09-.78,1.56-1.22,1.63S19.37,20.77,19.52,20.61Z"/><path class="cls-3" d="M15,24.33a7.5,7.5,0,0,1,2.87-.41c1.75,0,2.91.66,6.22-.37s4.06-1.81,5.75-1.84,3.34.5,5.91-.25,3.69-1.56,5.06-1.84,3.84-.22,4.34-.31,1.69-.41,1.87-.22a27.33,27.33,0,0,1,2.59,5.53c.94,2.75,1.06,3.66.88,4A10.69,10.69,0,0,1,45,30.14c-2.78.09-4.47-1.75-9-1.59s-8.94.91-11.06.66-3.5-1.34-6.06-1.22a13.58,13.58,0,0,0-3.91.44c-.87.28-1,.72-1.12.22S14.18,25.11,15,24.33Z"/><path class="cls-1" d="M44.77,20.71a7.54,7.54,0,0,1,2.72,1.41c-.09.19.06.44-.34.44a10.6,10.6,0,0,1-2.72-1.16A1.12,1.12,0,0,1,44.77,20.71Z"/><path class="cls-1" d="M43.81,22.64s4.25,1.94,4.25,2.22.19.47-.16.44a28.26,28.26,0,0,1-4.5-1.94C43.34,23.14,43.81,22.64,43.81,22.64Z"/><path class="cls-1" d="M41.77,24.08c.16,0,5.53,2.63,5.5,2.88s.13.5-.19.47A46.25,46.25,0,0,1,41.37,25C41.4,24.77,41.65,24.08,41.77,24.08Z"/><path class="cls-1" d="M40.24,25.92A29.31,29.31,0,0,1,44.46,28c-.09.19-.06.34-.28.34a33.88,33.88,0,0,1-4.34-1.66A2.19,2.19,0,0,1,40.24,25.92Z"/><path class="cls-3" d="M14.21,30.33c.14-.14.94-1.16,3.69-.72s4.25,1.78,7.31,1.22,9.63-.91,12.34-.34,2.06,1.56,6.53,1.38,6.5-1.5,6.72-1.19a12.5,12.5,0,0,1-.16,5.47c-.56,2.88-.91,3.78-1.06,3.94a30.86,30.86,0,0,1-5.84.94c-.41-.19-4.25-3.12-4.47-3.12s-.72.22-.59.44S43,41,42.74,41.17a37.62,37.62,0,0,1-12,.19A84.25,84.25,0,0,1,17.09,38.3,4.9,4.9,0,0,1,15,37.46a19.41,19.41,0,0,1-1.25-4.78C13.52,30.92,14,30.58,14.21,30.33Z"/><path class="cls-1" d="M41.65,36.46a20.5,20.5,0,0,1,4.25,3.16c0,.25,0,.44-.22.41S41,37.27,41.06,37,41.52,36.52,41.65,36.46Z"/><path class="cls-1" d="M43.06,35.49c.05-.08.47-.44.75-.37a21.37,21.37,0,0,1,3.75,2.81c0,.28.06.56-.25.5A28.89,28.89,0,0,1,43.06,35.49Z"/><path class="cls-1" d="M45.24,33.89c-.15-.1.16-.5.53-.44s2.56,1.28,2.5,1.56-.16.63-.34.63S45.43,34,45.24,33.89Z"/><path class="cls-2" d="M15.93,40.08c0-.28,7.59,2.56,12.59,2.94A81,81,0,0,0,42,43.24c4.66-.37,5.88-.66,5.88-.53a19.11,19.11,0,0,1-8.09,6.38,27.18,27.18,0,0,1-15.22.22c-3.75-1.25-6.62-5.56-7-6.12A19.11,19.11,0,0,1,15.93,40.08Z"/><path class="cls-1" d="M20.71,43.49c.29-.29,1.06.66,1.75.59s1.66-.25,2,.06.66.66,1.25.59,2.22-.72,2.5-.56.5.13.31.31a5.2,5.2,0,0,1-2.72,1.09c-1.09,0-1.94-.87-2.37-.81a5.17,5.17,0,0,1-1.81.13C20.87,44.77,20.46,43.74,20.71,43.49Z"/><path class="cls-1" d="M28.52,47.33a20,20,0,0,0,3.66.84A4.14,4.14,0,0,0,34,48c.25-.09,1.06-.31,1.19-.16s.28.22.13.41a2.65,2.65,0,0,1-1.5.56c-.72.06-2.75,0-3.63,0s-1,.13-1.47-.16S28.12,47.42,28.52,47.33Z"/><path class="cls-1" d="M37.27,45.92c.2-.11,1.31-.53,1.53-.34s.59.31.22.53a4.22,4.22,0,0,1-1.47.53C37.31,46.61,37.06,46,37.27,45.92Z"/></g></svg>